<?xml version="1.0" standalone="no"?><!DOCTYPE svg PUBLIC "-//W3C//DTD SVG 1.1//EN" "http://www.w3.org/Graphics/SVG/1.1/DTD/svg11.dtd"><svg t="1773426271050" class="icon" viewBox="0 0 1024 1024" version="1.1" xmlns="http://www.w3.org/2000/svg" p-id="6117" width="64" height="64" xmlns:xlink="http://www.w3.org/1999/xlink"><path d="M365.12 138.688h-23.808a42.688 42.688 0 0 1 0-85.376h341.376a42.688 42.688 0 0 1 0 85.376h-23.808v60.032c0 74.88 0.256 105.216 7.552 133.952 7.296 28.8 21.568 55.68 57.344 121.728l48.896 90.304c42.88 79.104 77.312 142.72 96 194.176 19.072 52.608 25.92 103.68-2.048 150.272l-0.064 0.192-0.64 0.896v0.192c-28.224 46.144-76.48 64.128-132.096 72.256-54.528 8-127.36 8-218.112 8h-7.424c-90.816 0-163.584 0-218.112-8-55.616-8.128-103.872-26.112-132.032-72.32l-0.128-0.128-0.64-1.088c-27.968-46.592-21.12-97.664-2.048-150.272 18.688-51.456 53.12-115.008 96-194.112L300.16 454.4c35.776-65.984 50.048-92.928 57.344-121.728 7.296-28.736 7.552-59.072 7.552-133.952v-60.032z m83.008 0v65.664c0 67.52 0 108.8-10.24 148.928-8.96 35.648-25.6 68.48-51.84 117.12 35.968 5.056 78.784 28.288 125.952 55.168 73.92 42.176 127.36 32.64 160.256 8.192l-24.064-44.48c-32.192-59.456-51.968-95.872-62.08-136-10.24-40.064-10.24-81.408-10.24-148.928V138.688H448.128z m-75.328 502.848a42.688 42.688 0 0 0 22.016 82.432l0.384-0.064a42.688 42.688 0 0 0-22.016-82.432l-0.384 0.064z m225.984 137.6a42.432 42.432 0 0 0 52.032 30.144l0.32-0.128a42.688 42.688 0 0 0-21.952-82.368l-0.384 0.064a42.688 42.688 0 0 0-30.016 52.288z" fill="#006BFF" p-id="6118"></path></svg>